<svg width="602" height="204" viewBox="0 0 602 204" fill="none" xmlns="http://www.w3.org/2000/svg">
<path d="M228.474 85V31.4424H238.683V40.5166H238.88C241.346 34.5 247.116 30.8506 254.119 30.8506C261.565 30.8506 266.941 34.5986 269.111 41.2563H269.357C272.168 34.7959 278.481 30.8506 286.125 30.8506C296.679 30.8506 303.583 37.8042 303.583 48.5059V85H292.931V51.0703C292.931 44.0674 289.133 40.0234 282.476 40.0234C275.917 40.0234 271.281 44.9058 271.281 51.7607V85H260.776V50.1826C260.776 43.9688 256.782 40.0234 250.519 40.0234C243.91 40.0234 239.176 45.1523 239.176 52.1553V85H228.474ZM332.877 77.0107C340.817 77.0107 346.833 71.9312 346.833 64.8789V60.687L333.814 61.5747C326.515 62.0186 322.718 64.731 322.718 69.4653C322.718 74.0518 326.712 77.0107 332.877 77.0107ZM330.017 85.5425C319.315 85.5425 311.917 79.23 311.917 69.6626C311.917 60.2925 319.167 54.8677 332.384 54.0293L346.833 53.1909V49.0483C346.833 42.9331 342.74 39.5796 335.589 39.5796C329.77 39.5796 325.529 42.5879 324.592 47.2236H314.581C314.876 37.7549 323.852 30.752 335.885 30.752C348.954 30.752 357.387 37.6562 357.387 48.2593V85H347.179V76.0737H346.932C343.973 81.8931 337.315 85.5425 330.017 85.5425ZM368.138 85V31.4424H378.347V40.4673H378.544C381.799 34.1548 387.174 30.8506 395.459 30.8506C407.295 30.8506 414.052 38.3467 414.052 50.6758V85H403.35V52.6978C403.35 44.5605 399.602 40.0234 391.761 40.0234C383.673 40.0234 378.84 45.6455 378.84 54.0786V85H368.138ZM425.148 85V31.4424H435.85V85H425.148ZM430.523 23.7983C427.071 23.7983 424.26 21.0366 424.26 17.6338C424.26 14.1323 427.071 11.4692 430.523 11.4692C433.976 11.4692 436.787 14.1323 436.787 17.6338C436.787 21.0366 433.976 23.7983 430.523 23.7983ZM446.354 46.6812C446.354 37.2617 454.787 30.8013 467.116 30.8013C478.854 30.8013 487.336 37.4097 487.583 46.7305H477.522C477.078 41.9961 472.985 39.0371 466.87 39.0371C460.804 39.0371 456.76 41.8481 456.76 46.0894C456.76 49.3442 459.423 51.5635 465.094 52.9443L473.971 55.0649C484.771 57.6787 488.766 61.5747 488.766 69.4653C488.766 79.0327 479.692 85.6411 466.722 85.6411C454.245 85.6411 445.713 79.1807 444.924 69.5146H455.478C456.316 74.6436 460.458 77.4546 467.264 77.4546C473.922 77.4546 478.114 74.6929 478.114 70.353C478.114 66.9502 475.993 65.1748 470.371 63.7446L460.804 61.3774C451.138 59.0103 446.354 54.0786 446.354 46.6812ZM497.89 85V10.6309H508.493V40.4673H508.739C511.945 34.1548 517.468 30.8506 525.655 30.8506C537.441 30.8506 544.494 38.6919 544.494 50.7744V85H533.792V52.8457C533.792 44.8564 529.797 40.0234 521.956 40.0234C513.622 40.0234 508.591 45.7441 508.591 54.3252V85H497.89ZM248.645 184.542C235.23 184.542 226.058 173.742 226.058 157.172C226.058 140.7 235.23 129.9 248.546 129.9C256.239 129.9 262.354 133.401 265.412 139.319H265.659V109.631H276.311V184H265.955V174.926H265.757C262.601 180.992 256.486 184.542 248.645 184.542ZM251.357 138.974C242.727 138.974 237.006 146.174 237.006 157.221C237.006 168.317 242.677 175.468 251.357 175.468C259.938 175.468 265.708 168.169 265.708 157.221C265.708 146.322 259.938 138.974 251.357 138.974ZM309.945 138.481C302.251 138.481 296.679 144.103 296.087 152.339H323.26C323.014 144.004 317.737 138.481 309.945 138.481ZM323.211 168.317H333.419C331.891 177.934 322.471 184.641 310.438 184.641C294.903 184.641 285.237 174.186 285.237 157.418C285.237 140.651 295.002 129.752 309.994 129.752C324.69 129.752 333.962 139.96 333.962 156.186V159.934H296.038V160.575C296.038 169.846 301.857 175.961 310.635 175.961C316.849 175.961 321.731 173.002 323.211 168.317ZM341.705 145.681C341.705 136.262 350.138 129.801 362.467 129.801C374.204 129.801 382.687 136.41 382.933 145.73H372.873C372.429 140.996 368.335 138.037 362.22 138.037C356.154 138.037 352.11 140.848 352.11 145.089C352.11 148.344 354.773 150.563 360.445 151.944L369.322 154.065C380.122 156.679 384.117 160.575 384.117 168.465C384.117 178.033 375.042 184.641 362.072 184.641C349.595 184.641 341.063 178.181 340.274 168.515H350.828C351.667 173.644 355.809 176.455 362.615 176.455C369.272 176.455 373.464 173.693 373.464 169.353C373.464 165.95 371.344 164.175 365.722 162.745L356.154 160.377C346.488 158.01 341.705 153.079 341.705 145.681ZM393.191 184V130.442H403.893V184H393.191ZM398.566 122.798C395.114 122.798 392.303 120.037 392.303 116.634C392.303 113.132 395.114 110.469 398.566 110.469C402.019 110.469 404.83 113.132 404.83 116.634C404.83 120.037 402.019 122.798 398.566 122.798ZM438.02 174.975C446.699 174.975 452.469 167.874 452.469 157.073C452.469 146.224 446.699 138.974 438.02 138.974C429.389 138.974 423.816 146.076 423.816 157.073C423.816 168.021 429.389 174.975 438.02 174.975ZM438.069 203.283C425.197 203.283 416.024 197.315 414.989 188.143H425.789C426.973 192.285 431.954 194.899 438.513 194.899C446.995 194.899 452.469 190.46 452.469 183.458V174.63H452.223C449.116 180.4 442.803 183.852 435.208 183.852C421.844 183.852 412.868 173.348 412.868 157.024C412.868 140.503 421.745 129.9 435.455 129.9C443.05 129.9 449.264 133.401 452.568 139.319H452.765V130.442H463.122V182.619C463.122 195.392 453.505 203.283 438.069 203.283ZM474.07 184V130.442H484.278V139.467H484.476C487.73 133.155 493.106 129.851 501.391 129.851C513.227 129.851 519.983 137.347 519.983 149.676V184H509.282V151.698C509.282 143.561 505.534 139.023 497.692 139.023C489.604 139.023 484.771 144.646 484.771 153.079V184H474.07ZM529.797 145.681C529.797 136.262 538.23 129.801 550.56 129.801C562.297 129.801 570.779 136.41 571.026 145.73H560.965C560.521 140.996 556.428 138.037 550.313 138.037C544.247 138.037 540.203 140.848 540.203 145.089C540.203 148.344 542.866 150.563 548.538 151.944L557.415 154.065C568.215 156.679 572.209 160.575 572.209 168.465C572.209 178.033 563.135 184.641 550.165 184.641C537.688 184.641 529.156 178.181 528.367 168.515H538.921C539.759 173.644 543.902 176.455 550.708 176.455C557.365 176.455 561.557 173.693 561.557 169.353C561.557 165.95 559.437 164.175 553.814 162.745L544.247 160.377C534.581 158.01 529.797 153.079 529.797 145.681ZM588.681 184.542C585.081 184.542 582.221 181.682 582.221 178.082C582.221 174.433 585.081 171.622 588.681 171.622C592.331 171.622 595.142 174.433 595.142 178.082C595.142 181.682 592.331 184.542 588.681 184.542Z" fill="white"/>
<path d="M148.82 164.945L95.2715 128.727L100.626 192H65.3737L70.7285 128.509L17.4032 164.945L0 135.273L58.9032 108L0 81.1636L17.4032 51.0545L70.9516 88.1455L65.3737 24H100.626L95.0484 88.1455L148.82 51.0545L166 81.1636L107.32 108L166 135.273L148.82 164.945Z" fill="#387DCF"/>
</svg>
